<?xml version="1.0" encoding="UTF-8"?><svg xmlns="http://www.w3.org/2000/svg" width="150.7" height="70.95" xmlns:xlink="http://www.w3.org/1999/xlink" viewBox="0 0 198.7 104.95"><defs><style>.cls-1{fill:url(#linear-gradient-2);}.cls-2{fill:url(#linear-gradient-17);}.cls-3{fill:url(#linear-gradient-15);}.cls-4{mix-blend-mode:lighten;}.cls-5{fill:url(#linear-gradient-18);}.cls-6{fill:url(#linear-gradient-28);}.cls-7{fill:url(#linear-gradient-14);}.cls-8{fill:url(#linear-gradient-20);}.cls-9{fill:url(#linear-gradient-6);}.cls-10{isolation:isolate;}.cls-11{fill:url(#linear-gradient-11);}.cls-12{fill:url(#linear-gradient-10);}.cls-13{fill:url(#linear-gradient-16);}.cls-14{fill:url(#linear-gradient-21);}.cls-15{fill:url(#linear-gradient-25);}.cls-16{fill:url(#linear-gradient-5);}.cls-17{fill:url(#linear-gradient-7);}.cls-18{fill:url(#linear-gradient-24);}.cls-19{fill:url(#linear-gradient-9);}.cls-20{fill:url(#linear-gradient-22);}.cls-21{fill:url(#linear-gradient-3);}.cls-22{fill:url(#linear-gradient);}.cls-23{fill:url(#linear-gradient-27);}.cls-24{fill:url(#linear-gradient-23);}.cls-25{fill:url(#linear-gradient-19);}.cls-26{fill:url(#linear-gradient-4);}.cls-27{fill:url(#linear-gradient-8);}.cls-28{fill:url(#linear-gradient-12);}.cls-29{fill:url(#linear-gradient-13);}.cls-30{fill:url(#linear-gradient-26);}</style><linearGradient id="linear-gradient" x1="3466.71" y1="-271.18" x2="3466.71" y2="-242.44" gradientTransform="translate(3517.71 296.29) rotate(-180) scale(1 -1)" gradientUnits="userSpaceOnUse"><stop offset="0" stop-color="#8b00cc"/><stop offset="1" stop-color="#4d0070"/></linearGradient><linearGradient id="linear-gradient-2" x1="3389.18" y1="-296.29" x2="3389.18" y2="-202.07" gradientTransform="translate(3517.71 296.29) rotate(-180) scale(1 -1)" gradientUnits="userSpaceOnUse"><stop offset="0" stop-color="#d987ff"/><stop offset="1" stop-color="#4d0070"/></linearGradient><linearGradient id="linear-gradient-3" x1="3378.11" y1="-287.71" x2="3378.11" y2="-202.05" xlink:href="#linear-gradient"/><linearGradient id="linear-gradient-4" x1="3367.03" y1="-277.05" x2="3367.03" y2="-201.76" xlink:href="#linear-gradient-2"/><linearGradient id="linear-gradient-5" x1="3355.96" y1="-260.52" x2="3355.96" y2="-195.89" xlink:href="#linear-gradient"/><linearGradient id="linear-gradient-6" x1="3344.88" y1="-262.99" x2="3344.88" y2="-209.57" xlink:href="#linear-gradient-2"/><linearGradient id="linear-gradient-7" x1="3333.8" y1="-265.93" x2="3333.8" y2="-223.83" xlink:href="#linear-gradient"/><linearGradient id="linear-gradient-8" x1="3322.73" y1="-250.65" x2="3322.73" y2="-221.91" xlink:href="#linear-gradient-2"/><linearGradient id="linear-gradient-9" x1="3400.26" y1="-287.71" x2="3400.26" y2="-193.49" xlink:href="#linear-gradient"/><linearGradient id="linear-gradient-10" x1="3411.33" y1="-289.2" x2="3411.33" y2="-203.54" xlink:href="#linear-gradient-2"/><linearGradient id="linear-gradient-11" x1="3422.41" y1="-293.14" x2="3422.41" y2="-217.85" xlink:href="#linear-gradient"/><linearGradient id="linear-gradient-12" x1="3433.49" y1="-279.03" x2="3433.49" y2="-214.4" xlink:href="#linear-gradient-2"/><linearGradient id="linear-gradient-13" x1="3444.56" y1="-283.51" x2="3444.56" y2="-230.1" xlink:href="#linear-gradient"/><linearGradient id="linear-gradient-14" x1="3455.64" y1="-269.26" x2="3455.64" y2="-227.16" xlink:href="#linear-gradient-2"/><linearGradient id="linear-gradient-15" x1="147.7" y1="27.26" x2="147.7" y2="56.01" gradientUnits="userSpaceOnUse"><stop offset="0" stop-color="#00ccaf"/><stop offset="1" stop-color="#007060"/></linearGradient><linearGradient id="linear-gradient-16" x1="70.17" y1="2.15" x2="70.17" y2="96.37" gradientUnits="userSpaceOnUse"><stop offset="0" stop-color="#00ffda"/><stop offset="1" stop-color="#007060"/></linearGradient><linearGradient id="linear-gradient-17" x1="59.09" y1="10.73" x2="59.09" y2="96.39" xlink:href="#linear-gradient-15"/><linearGradient id="linear-gradient-18" x1="48.02" y1="21.39" x2="48.02" y2="96.68" xlink:href="#linear-gradient-16"/><linearGradient id="linear-gradient-19" x1="36.94" y1="37.92" x2="36.94" y2="102.55" xlink:href="#linear-gradient-15"/><linearGradient id="linear-gradient-20" x1="25.87" y1="35.45" x2="25.87" y2="88.87" xlink:href="#linear-gradient-16"/><linearGradient id="linear-gradient-21" x1="14.79" y1="32.51" x2="14.79" y2="74.61" xlink:href="#linear-gradient-15"/><linearGradient id="linear-gradient-22" x1="3.72" y1="47.79" x2="3.72" y2="76.53" xlink:href="#linear-gradient-16"/><linearGradient id="linear-gradient-23" x1="81.25" y1="10.73" x2="81.25" y2="104.95" xlink:href="#linear-gradient-15"/><linearGradient id="linear-gradient-24" x1="92.32" y1="9.24" x2="92.32" y2="94.9" xlink:href="#linear-gradient-16"/><linearGradient id="linear-gradient-25" x1="103.4" y1="5.3" x2="103.4" y2="80.59" xlink:href="#linear-gradient-15"/><linearGradient id="linear-gradient-26" x1="114.47" y1="19.41" x2="114.47" y2="84.05" xlink:href="#linear-gradient-16"/><linearGradient id="linear-gradient-27" x1="125.55" y1="14.93" x2="125.55" y2="68.34" xlink:href="#linear-gradient-15"/><linearGradient id="linear-gradient-28" x1="136.63" y1="29.18" x2="136.63" y2="71.28" xlink:href="#linear-gradient-16"/></defs><g class="cls-10"><g id="Layer_2"><g id="Layer_1-2"><g id="logo"><g id="purple_group"><path id="purple" class="cls-22" d="m51,25.11c-2.04,0-3.72,1.67-3.72,3.72,0,0,0,21.31,0,21.31,0,2.04,1.67,3.72,3.72,3.72,2.04,0,3.72-1.67,3.72-3.72v-21.31c0-2.04-1.67-3.72-3.72-3.72Z"/><path id="purple-2" class="cls-1" d="m128.45,94.22c2.05.08,3.8-1.58,3.79-3.64,0,0,0-86.94,0-86.94,0-2-1.64-3.64-3.64-3.64-2.05-.08-3.8,1.58-3.79,3.64,0,0,0,86.94,0,86.94,0,2,1.64,3.64,3.64,3.64Z"/><path id="purple-3" class="cls-21" d="m139.6,94.24c2.04,0,3.72-1.67,3.72-3.72,0,0,0-78.23,0-78.23,0-2.04-1.67-3.72-3.72-3.72-2.04,0-3.72,1.67-3.72,3.72v78.23c0,2.04,1.67,3.72,3.72,3.72Z"/><path id="purple-4" class="cls-26" d="m150.68,94.53c2.04,0,3.72-1.67,3.72-3.72,0,0,0-67.86,0-67.86,0-2.04-1.67-3.72-3.72-3.72-2.04,0-3.72,1.67-3.72,3.72v67.86c0,2.04,1.67,3.72,3.72,3.72Z"/><path id="purple-5" class="cls-16" d="m161.76,100.4c2.04,0,3.72-1.67,3.72-3.72,0,0,0-57.2,0-57.2,0-2.04-1.67-3.72-3.72-3.72-2.04,0-3.72,1.67-3.72,3.72v57.2c0,2.04,1.67,3.72,3.72,3.72Z"/><path id="purple-6" class="cls-9" d="m172.83,86.72c2.04,0,3.72-1.67,3.72-3.72,0,0,0-45.99,0-45.99,0-2.04-1.67-3.72-3.72-3.72-2.04,0-3.72,1.67-3.72,3.72v45.99c0,2.04,1.67,3.72,3.72,3.72Z"/><path id="purple-7" class="cls-17" d="m183.91,72.46c2.04,0,3.72-1.67,3.72-3.72,0,0,0-34.67,0-34.67,0-2.04-1.67-3.72-3.72-3.72-2.04,0-3.72,1.67-3.72,3.72v34.67c0,2.04,1.67,3.72,3.72,3.72Z"/><path id="purple-8" class="cls-27" d="m194.98,74.38c2.04,0,3.72-1.67,3.72-3.72,0,0,0-21.31,0-21.31,0-2.04-1.67-3.72-3.72-3.72-2.04,0-3.72,1.67-3.72,3.72v21.31c0,2.04,1.67,3.72,3.72,3.72Z"/><path id="purple-9" class="cls-19" d="m117.53,8.58c-2.05-.08-3.8,1.58-3.79,3.64,0,0,0,86.94,0,86.94,0,2,1.64,3.64,3.64,3.64,2.05.08,3.8-1.58,3.79-3.64,0,0,0-86.94,0-86.94,0-2-1.64-3.64-3.64-3.64Z"/><path id="purple-10" class="cls-12" d="m106.38,7.08c-2.04,0-3.72,1.67-3.72,3.72,0,0,0,78.23,0,78.23,0,2.04,1.67,3.72,3.72,3.72,2.04,0,3.72-1.67,3.72-3.72V10.8c0-2.04-1.67-3.72-3.72-3.72Z"/><path id="purple-11" class="cls-11" d="m95.3,3.15c-2.04,0-3.72,1.67-3.72,3.72,0,0,0,67.86,0,67.86,0,2.04,1.67,3.72,3.72,3.72,2.04,0,3.72-1.67,3.72-3.72V6.86c0-2.04-1.67-3.72-3.72-3.72Z"/><path id="purple-12" class="cls-28" d="m84.22,17.26c-2.04,0-3.72,1.67-3.72,3.72,0,0,0,57.2,0,57.2,0,2.04,1.67,3.72,3.72,3.72,2.04,0,3.72-1.67,3.72-3.72,0,0,0-57.2,0-57.2,0-2.04-1.67-3.72-3.72-3.72Z"/><path id="purple-13" class="cls-29" d="m73.15,12.77c-2.04,0-3.72,1.67-3.72,3.72,0,0,0,45.99,0,45.99,0,2.04,1.67,3.72,3.72,3.72,2.04,0,3.72-1.67,3.72-3.72V16.49c0-2.04-1.67-3.72-3.72-3.72Z"/><path id="purple-14" class="cls-7" d="m62.07,27.03c-2.04,0-3.72,1.67-3.72,3.72,0,0,0,34.67,0,34.67,0,2.04,1.67,3.72,3.72,3.72,2.04,0,3.72-1.67,3.72-3.72V30.75c0-2.04-1.67-3.72-3.72-3.72Z"/></g><g id="green_group" class="cls-4"><path id="green" class="cls-3" d="m147.7,27.26c2.04,0,3.72,1.67,3.72,3.72,0,0,0,21.31,0,21.31,0,2.04-1.67,3.72-3.72,3.72-2.04,0-3.72-1.67-3.72-3.72v-21.31c0-2.04,1.67-3.72,3.72-3.72Z"/><path id="green-2" class="cls-13" d="m70.25,96.37c-2.05.08-3.8-1.58-3.79-3.64,0,0,0-86.94,0-86.94,0-2,1.64-3.64,3.64-3.64,2.05-.08,3.8,1.58,3.79,3.64,0,0,0,86.94,0,86.94,0,2-1.64,3.64-3.64,3.64Z"/><path id="green-3" class="cls-2" d="m59.09,96.39c-2.04,0-3.72-1.67-3.72-3.72,0,0,0-78.23,0-78.23,0-2.04,1.67-3.72,3.72-3.72,2.04,0,3.72,1.67,3.72,3.72v78.23c0,2.04-1.67,3.72-3.72,3.72Z"/><path id="green-4" class="cls-5" d="m48.02,96.68c-2.04,0-3.72-1.67-3.72-3.72,0,0,0-67.86,0-67.86,0-2.04,1.67-3.72,3.72-3.72,2.04,0,3.72,1.67,3.72,3.72v67.86c0,2.04-1.67,3.72-3.72,3.72Z"/><path id="green-5" class="cls-25" d="m36.94,102.55c-2.04,0-3.72-1.67-3.72-3.72,0,0,0-57.2,0-57.2,0-2.04,1.67-3.72,3.72-3.72,2.04,0,3.72,1.67,3.72,3.72v57.2c0,2.04-1.67,3.72-3.72,3.72Z"/><path id="green-6" class="cls-8" d="m25.87,88.87c-2.04,0-3.72-1.67-3.72-3.72,0,0,0-45.99,0-45.99,0-2.04,1.67-3.72,3.72-3.72,2.04,0,3.72,1.67,3.72,3.72v45.99c0,2.04-1.67,3.72-3.72,3.72Z"/><path id="green-7" class="cls-14" d="m14.79,74.61c-2.04,0-3.72-1.67-3.72-3.72,0,0,0-34.67,0-34.67,0-2.04,1.67-3.72,3.72-3.72,2.04,0,3.72,1.67,3.72,3.72v34.67c0,2.04-1.67,3.72-3.72,3.72Z"/><path id="green-8" class="cls-20" d="m3.72,76.53C1.67,76.53,0,74.86,0,72.82c0,0,0-21.31,0-21.31,0-2.04,1.67-3.72,3.72-3.72,2.04,0,3.72,1.67,3.72,3.72v21.31c0,2.04-1.67,3.72-3.72,3.72Z"/><path id="green-9" class="cls-24" d="m81.17,10.73c2.05-.08,3.8,1.58,3.79,3.64,0,0,0,86.94,0,86.94,0,2-1.64,3.64-3.64,3.64-2.05.08-3.8-1.58-3.79-3.64,0,0,0-86.94,0-86.94,0-2,1.64-3.64,3.64-3.64Z"/><path id="green-10" class="cls-18" d="m92.32,9.24c2.04,0,3.72,1.67,3.72,3.72,0,0,0,78.23,0,78.23,0,2.04-1.67,3.72-3.72,3.72-2.04,0-3.72-1.67-3.72-3.72V12.95c0-2.04,1.67-3.72,3.72-3.72Z"/><path id="green-11" class="cls-15" d="m103.4,5.3c2.04,0,3.72,1.67,3.72,3.72,0,0,0,67.86,0,67.86,0,2.04-1.67,3.72-3.72,3.72-2.04,0-3.72-1.67-3.72-3.72V9.02c0-2.04,1.67-3.72,3.72-3.72Z"/><path id="green-12" class="cls-30" d="m114.47,19.41c2.04,0,3.72,1.67,3.72,3.72,0,0,0,57.2,0,57.2,0,2.04-1.67,3.72-3.72,3.72-2.04,0-3.72-1.67-3.72-3.72V23.13c0-2.04,1.67-3.72,3.72-3.72Z"/><path id="green-13" class="cls-23" d="m125.55,14.93c2.04,0,3.72,1.67,3.72,3.72,0,0,0,45.99,0,45.99,0,2.04-1.67,3.72-3.72,3.72-2.04,0-3.72-1.67-3.72-3.72V18.64c0-2.04,1.67-3.72,3.72-3.72Z"/><path id="green-14" class="cls-6" d="m136.63,29.18c2.04,0,3.72,1.67,3.72,3.72,0,0,0,34.67,0,34.67,0,2.04-1.67,3.72-3.72,3.72-2.04,0-3.72-1.67-3.72-3.72v-34.67c0-2.04,1.67-3.72,3.72-3.72Z"/></g></g></g></g></g></svg>