<?xml version="1.0" encoding="UTF-8"?><svg xmlns="http://www.w3.org/2000/svg" width="888.74" height="469.42" xmlns:xlink="http://www.w3.org/1999/xlink" viewBox="0 0 888.74 469.42"><defs><style>.cls-1{fill:url(#linear-gradient-2);}.cls-2{fill:url(#linear-gradient-17);}.cls-3{fill:url(#linear-gradient-15);}.cls-4{mix-blend-mode:lighten;}.cls-5{fill:url(#linear-gradient-18);}.cls-6{fill:url(#linear-gradient-28);}.cls-7{fill:url(#linear-gradient-14);}.cls-8{fill:url(#linear-gradient-20);}.cls-9{fill:url(#linear-gradient-6);}.cls-10{isolation:isolate;}.cls-11{fill:url(#linear-gradient-11);}.cls-12{fill:url(#linear-gradient-10);}.cls-13{fill:url(#linear-gradient-16);}.cls-14{fill:url(#linear-gradient-21);}.cls-15{fill:url(#linear-gradient-25);}.cls-16{fill:url(#linear-gradient-5);}.cls-17{fill:url(#linear-gradient-7);}.cls-18{fill:url(#linear-gradient-24);}.cls-19{fill:url(#linear-gradient-9);}.cls-20{fill:url(#linear-gradient-22);}.cls-21{fill:url(#linear-gradient-3);}.cls-22{fill:url(#linear-gradient);}.cls-23{fill:url(#linear-gradient-27);}.cls-24{fill:url(#linear-gradient-23);}.cls-25{fill:url(#linear-gradient-19);}.cls-26{fill:url(#linear-gradient-4);}.cls-27{fill:url(#linear-gradient-8);}.cls-28{fill:url(#linear-gradient-12);}.cls-29{fill:url(#linear-gradient-13);}.cls-30{fill:url(#linear-gradient-26);}</style><linearGradient id="linear-gradient" x1="4301.98" y1="-183.97" x2="4301.98" y2="-55.42" gradientTransform="translate(4530.08 296.29) rotate(-180) scale(1 -1)" gradientUnits="userSpaceOnUse"><stop offset="0" stop-color="#8b00cc"/><stop offset="1" stop-color="#4d0070"/></linearGradient><linearGradient id="linear-gradient-2" x1="3955.2" y1="-296.29" x2="3955.2" y2="125.14" gradientTransform="translate(4530.08 296.29) rotate(-180) scale(1 -1)" gradientUnits="userSpaceOnUse"><stop offset="0" stop-color="#d987ff"/><stop offset="1" stop-color="#4d0070"/></linearGradient><linearGradient id="linear-gradient-3" x1="3905.66" y1="-257.92" x2="3905.66" y2="125.23" xlink:href="#linear-gradient"/><linearGradient id="linear-gradient-4" x1="3856.12" y1="-210.23" x2="3856.12" y2="126.51" xlink:href="#linear-gradient-2"/><linearGradient id="linear-gradient-5" x1="3806.58" y1="-136.31" x2="3806.58" y2="152.78" xlink:href="#linear-gradient"/><linearGradient id="linear-gradient-6" x1="3757.04" y1="-147.34" x2="3757.04" y2="91.58" xlink:href="#linear-gradient-2"/><linearGradient id="linear-gradient-7" x1="3707.5" y1="-160.49" x2="3707.5" y2="27.81" xlink:href="#linear-gradient"/><linearGradient id="linear-gradient-8" x1="3657.96" y1="-92.16" x2="3657.96" y2="36.4" xlink:href="#linear-gradient-2"/><linearGradient id="linear-gradient-9" x1="4004.74" y1="-257.93" x2="4004.74" y2="163.5" xlink:href="#linear-gradient"/><linearGradient id="linear-gradient-10" x1="4054.28" y1="-264.61" x2="4054.28" y2="118.54" xlink:href="#linear-gradient-2"/><linearGradient id="linear-gradient-11" x1="4103.82" y1="-282.22" x2="4103.82" y2="54.53" xlink:href="#linear-gradient"/><linearGradient id="linear-gradient-12" x1="4153.36" y1="-219.09" x2="4153.36" y2="70" xlink:href="#linear-gradient-2"/><linearGradient id="linear-gradient-13" x1="4202.9" y1="-239.16" x2="4202.9" y2="-.24" xlink:href="#linear-gradient"/><linearGradient id="linear-gradient-14" x1="4252.44" y1="-175.39" x2="4252.44" y2="12.92" xlink:href="#linear-gradient-2"/><linearGradient id="linear-gradient-15" x1="660.64" y1="121.95" x2="660.64" y2="250.5" gradientUnits="userSpaceOnUse"><stop offset="0" stop-color="#00ccaf"/><stop offset="1" stop-color="#007060"/></linearGradient><linearGradient id="linear-gradient-16" x1="313.86" y1="9.63" x2="313.86" y2="431.06" gradientUnits="userSpaceOnUse"><stop offset="0" stop-color="#00ffda"/><stop offset="1" stop-color="#007060"/></linearGradient><linearGradient id="linear-gradient-17" x1="264.32" y1="48" x2="264.32" y2="431.16" xlink:href="#linear-gradient-15"/><linearGradient id="linear-gradient-18" x1="214.78" y1="95.69" x2="214.78" y2="432.44" xlink:href="#linear-gradient-16"/><linearGradient id="linear-gradient-19" x1="165.24" y1="169.61" x2="165.24" y2="458.7" xlink:href="#linear-gradient-15"/><linearGradient id="linear-gradient-20" x1="115.7" y1="158.58" x2="115.7" y2="397.5" xlink:href="#linear-gradient-16"/><linearGradient id="linear-gradient-21" x1="66.16" y1="145.43" x2="66.16" y2="333.73" xlink:href="#linear-gradient-15"/><linearGradient id="linear-gradient-22" x1="16.62" y1="213.76" x2="16.62" y2="342.32" xlink:href="#linear-gradient-16"/><linearGradient id="linear-gradient-23" x1="363.4" y1="47.99" x2="363.4" y2="469.42" xlink:href="#linear-gradient-15"/><linearGradient id="linear-gradient-24" x1="412.94" y1="41.32" x2="412.94" y2="424.47" xlink:href="#linear-gradient-16"/><linearGradient id="linear-gradient-25" x1="462.48" y1="23.71" x2="462.48" y2="360.45" xlink:href="#linear-gradient-15"/><linearGradient id="linear-gradient-26" x1="512.02" y1="86.83" x2="512.02" y2="375.92" xlink:href="#linear-gradient-16"/><linearGradient id="linear-gradient-27" x1="561.56" y1="66.77" x2="561.56" y2="305.69" xlink:href="#linear-gradient-15"/><linearGradient id="linear-gradient-28" x1="611.1" y1="130.54" x2="611.1" y2="318.84" xlink:href="#linear-gradient-16"/></defs><g class="cls-10"><g id="Layer_2"><g id="Layer_1-2"><g id="logo"><g id="purple_group"><path id="purple" class="cls-22" d="m228.1,112.32c-9.14,0-16.62,7.48-16.62,16.62,0,0,0,95.32,0,95.32,0,9.14,7.48,16.62,16.62,16.62,9.14,0,16.62-7.48,16.62-16.62v-95.32c0-9.14-7.48-16.62-16.62-16.62Z"/><path id="purple-2" class="cls-1" d="m574.53,421.42c9.18.36,16.99-7.05,16.97-16.27,0,0,0-388.86,0-388.86,0-8.95-7.32-16.27-16.27-16.27-9.18-.36-16.99,7.05-16.97,16.27,0,0,0,388.86,0,388.86,0,8.95,7.32,16.27,16.27,16.27Z"/><path id="purple-3" class="cls-21" d="m624.42,421.52c9.14,0,16.62-7.48,16.62-16.62,0,0,0-349.92,0-349.92,0-9.14-7.48-16.62-16.62-16.62-9.14,0-16.62,7.48-16.62,16.62v349.92c0,9.14,7.48,16.62,16.62,16.62Z"/><path id="purple-4" class="cls-26" d="m673.96,422.8c9.14,0,16.62-7.48,16.62-16.62,0,0,0-303.51,0-303.51,0-9.14-7.48-16.62-16.62-16.62-9.14,0-16.62,7.48-16.62,16.62v303.51c0,9.14,7.48,16.62,16.62,16.62Z"/><path id="purple-5" class="cls-16" d="m723.5,449.07c9.14,0,16.62-7.48,16.62-16.62,0,0,0-255.85,0-255.85,0-9.14-7.48-16.62-16.62-16.62-9.14,0-16.62,7.48-16.62,16.62v255.85c0,9.14,7.48,16.62,16.62,16.62Z"/><path id="purple-6" class="cls-9" d="m773.04,387.87c9.14,0,16.62-7.48,16.62-16.62,0,0,0-205.69,0-205.69,0-9.14-7.48-16.62-16.62-16.62-9.14,0-16.62,7.48-16.62,16.62v205.69c0,9.14,7.48,16.62,16.62,16.62Z"/><path id="purple-7" class="cls-17" d="m822.58,324.1c9.14,0,16.62-7.48,16.62-16.62,0,0,0-155.07,0-155.07,0-9.14-7.48-16.62-16.62-16.62-9.14,0-16.62,7.48-16.62,16.62v155.07c0,9.14,7.48,16.62,16.62,16.62Z"/><path id="purple-8" class="cls-27" d="m872.12,332.68c9.14,0,16.62-7.48,16.62-16.62,0,0,0-95.32,0-95.32,0-9.14-7.48-16.62-16.62-16.62-9.14,0-16.62,7.48-16.62,16.62v95.32c0,9.14,7.48,16.62,16.62,16.62Z"/><path id="purple-9" class="cls-19" d="m525.69,38.37c-9.18-.36-16.99,7.05-16.97,16.27,0,0,0,388.86,0,388.86,0,8.95,7.32,16.27,16.27,16.27,9.18.36,16.99-7.05,16.97-16.27,0,0,0-388.86,0-388.86,0-8.95-7.32-16.27-16.27-16.27Z"/><path id="purple-10" class="cls-12" d="m475.8,31.68c-9.14,0-16.62,7.48-16.62,16.62,0,0,0,349.92,0,349.92,0,9.14,7.48,16.62,16.62,16.62,9.14,0,16.62-7.48,16.62-16.62V48.3c0-9.14-7.48-16.62-16.62-16.62Z"/><path id="purple-11" class="cls-11" d="m426.26,14.07c-9.14,0-16.62,7.48-16.62,16.62,0,0,0,303.51,0,303.51,0,9.14,7.48,16.62,16.62,16.62,9.14,0,16.62-7.48,16.62-16.62V30.69c0-9.14-7.48-16.62-16.62-16.62Z"/><path id="purple-12" class="cls-28" d="m376.72,77.2c-9.14,0-16.62,7.48-16.62,16.62,0,0,0,255.85,0,255.85,0,9.14,7.48,16.62,16.62,16.62,9.14,0,16.62-7.48,16.62-16.62,0,0,0-255.85,0-255.85,0-9.14-7.48-16.62-16.62-16.62Z"/><path id="purple-13" class="cls-29" d="m327.18,57.13c-9.14,0-16.62,7.48-16.62,16.62,0,0,0,205.69,0,205.69,0,9.14,7.48,16.62,16.62,16.62,9.14,0,16.62-7.48,16.62-16.62V73.75c0-9.14-7.48-16.62-16.62-16.62Z"/><path id="purple-14" class="cls-7" d="m277.64,120.9c-9.14,0-16.62,7.48-16.62,16.62,0,0,0,155.07,0,155.07,0,9.14,7.48,16.62,16.62,16.62,9.14,0,16.62-7.48,16.62-16.62v-155.07c0-9.14-7.48-16.62-16.62-16.62Z"/></g><g id="green_group" class="cls-4"><path id="green" class="cls-3" d="m660.64,121.95c9.14,0,16.62,7.48,16.62,16.62,0,0,0,95.32,0,95.32,0,9.14-7.48,16.62-16.62,16.62-9.14,0-16.62-7.48-16.62-16.62v-95.32c0-9.14,7.48-16.62,16.62-16.62Z"/><path id="green-2" class="cls-13" d="m314.21,431.05c-9.18.36-16.99-7.05-16.97-16.27,0,0,0-388.86,0-388.86,0-8.95,7.32-16.27,16.27-16.27,9.18-.36,16.99,7.05,16.97,16.27,0,0,0,388.86,0,388.86,0,8.95-7.32,16.27-16.27,16.27Z"/><path id="green-3" class="cls-2" d="m264.32,431.16c-9.14,0-16.62-7.48-16.62-16.62,0,0,0-349.92,0-349.92,0-9.14,7.48-16.62,16.62-16.62,9.14,0,16.62,7.48,16.62,16.62v349.92c0,9.14-7.48,16.62-16.62,16.62Z"/><path id="green-4" class="cls-5" d="m214.78,432.44c-9.14,0-16.62-7.48-16.62-16.62,0,0,0-303.51,0-303.51,0-9.14,7.48-16.62,16.62-16.62,9.14,0,16.62,7.48,16.62,16.62v303.51c0,9.14-7.48,16.62-16.62,16.62Z"/><path id="green-5" class="cls-25" d="m165.24,458.7c-9.14,0-16.62-7.48-16.62-16.62,0,0,0-255.85,0-255.85,0-9.14,7.48-16.62,16.62-16.62,9.14,0,16.62,7.48,16.62,16.62v255.85c0,9.14-7.48,16.62-16.62,16.62Z"/><path id="green-6" class="cls-8" d="m115.7,397.5c-9.14,0-16.62-7.48-16.62-16.62,0,0,0-205.69,0-205.69,0-9.14,7.48-16.62,16.62-16.62,9.14,0,16.62,7.48,16.62,16.62v205.69c0,9.14-7.48,16.62-16.62,16.62Z"/><path id="green-7" class="cls-14" d="m66.16,333.73c-9.14,0-16.62-7.48-16.62-16.62,0,0,0-155.07,0-155.07,0-9.14,7.48-16.62,16.62-16.62,9.14,0,16.62,7.48,16.62,16.62v155.07c0,9.14-7.48,16.62-16.62,16.62Z"/><path id="green-8" class="cls-20" d="m16.62,342.32C7.48,342.32,0,334.84,0,325.7c0,0,0-95.32,0-95.32,0-9.14,7.48-16.62,16.62-16.62,9.14,0,16.62,7.48,16.62,16.62v95.32c0,9.14-7.48,16.62-16.62,16.62Z"/><path id="green-9" class="cls-24" d="m363.05,48c9.18-.36,16.99,7.05,16.97,16.27,0,0,0,388.86,0,388.86,0,8.95-7.32,16.27-16.27,16.27-9.18.36-16.99-7.05-16.97-16.27,0,0,0-388.86,0-388.86,0-8.95,7.32-16.27,16.27-16.27Z"/><path id="green-10" class="cls-18" d="m412.94,41.32c9.14,0,16.62,7.48,16.62,16.62,0,0,0,349.92,0,349.92,0,9.14-7.48,16.62-16.62,16.62-9.14,0-16.62-7.48-16.62-16.62V57.93c0-9.14,7.48-16.62,16.62-16.62Z"/><path id="green-11" class="cls-15" d="m462.48,23.71c9.14,0,16.62,7.48,16.62,16.62,0,0,0,303.51,0,303.51,0,9.14-7.48,16.62-16.62,16.62-9.14,0-16.62-7.48-16.62-16.62V40.32c0-9.14,7.48-16.62,16.62-16.62Z"/><path id="green-12" class="cls-30" d="m512.02,86.83c9.14,0,16.62,7.48,16.62,16.62,0,0,0,255.85,0,255.85,0,9.14-7.48,16.62-16.62,16.62-9.14,0-16.62-7.48-16.62-16.62V103.45c0-9.14,7.48-16.62,16.62-16.62Z"/><path id="green-13" class="cls-23" d="m561.56,66.77c9.14,0,16.62,7.48,16.62,16.62,0,0,0,205.69,0,205.69,0,9.14-7.48,16.62-16.62,16.62-9.14,0-16.62-7.48-16.62-16.62V83.38c0-9.14,7.48-16.62,16.62-16.62Z"/><path id="green-14" class="cls-6" d="m611.1,130.54c9.14,0,16.62,7.48,16.62,16.62,0,0,0,155.07,0,155.07,0,9.14-7.48,16.62-16.62,16.62-9.14,0-16.62-7.48-16.62-16.62v-155.07c0-9.14,7.48-16.62,16.62-16.62Z"/></g></g></g></g></g></svg>